<?xml version="1.0" encoding="iso-8859-1"?>
<!-- Uploaded to: SVG Repo, www.svgrepo.com, Generator: SVG Repo Mixer Tools -->
<svg fill="#000000" height="800px" width="800px" version="1.1" id="Layer_1" xmlns="http://www.w3.org/2000/svg" xmlns:xlink="http://www.w3.org/1999/xlink" 
	 viewBox="0 0 512 512" xml:space="preserve">
<g>
	<g>
		<g>
			<path d="M252.237,109.508c13.193,6.571,24.107,17.442,30.72,30.643c1.493,2.978,4.497,4.71,7.637,4.71
				c1.28,0,2.586-0.29,3.814-0.905c4.207-2.116,5.914-7.245,3.797-11.46c-8.252-16.469-21.879-30.071-38.374-38.272
				c-4.233-2.091-9.344-0.384-11.443,3.84C246.298,102.281,248.013,107.409,252.237,109.508z"/>
			<path d="M426.667,25.6c0,4.71,3.814,8.533,8.533,8.533s8.533-3.823,8.533-8.533c0-14.114-11.486-25.6-25.6-25.6H25.6
				C11.486,0,0,11.486,0,25.6c0,4.71,3.823,8.533,8.533,8.533s8.533-3.823,8.533-8.533c0-4.702,3.831-8.533,8.533-8.533h392.533
				C422.844,17.067,426.667,20.898,426.667,25.6z"/>
			<path d="M136.533,170.667c0,47.053,38.281,85.333,85.333,85.333c47.053,0,85.333-38.281,85.333-85.333
				c0-4.71-3.814-8.533-8.533-8.533s-8.533,3.823-8.533,8.533c0,37.641-30.626,68.267-68.267,68.267
				c-37.641,0-68.267-30.626-68.267-68.267c0-37.641,30.626-68.267,68.267-68.267c4.71,0,8.533-3.823,8.533-8.533
				c0-4.71-3.823-8.533-8.533-8.533C174.814,85.333,136.533,123.614,136.533,170.667z"/>
			<path d="M270.566,437.7c-3.337-3.336-8.73-3.336-12.066,0c-3.337,3.337-3.337,8.73,0,12.066l25.6,25.6
				c1.596,1.604,3.763,2.5,6.033,2.5h213.333c4.719,0,8.533-3.823,8.533-8.533s-3.814-8.533-8.533-8.533H293.666L270.566,437.7z"/>
			<path d="M349.867,375.467c22.34,0,40.269-17.596,42.65-42.163L409.583,43.17c0.273-4.71-3.311-8.747-8.013-9.02
				c-4.71-0.393-8.747,3.319-9.02,8.013l-17.041,289.809c-1.519,15.565-12.058,26.428-25.643,26.428H307.2v-8.533
				c0-14.114-11.486-25.6-25.6-25.6H162.133c-14.114,0-25.6,11.486-25.6,25.6v8.533H93.867c-13.56,0-24.107-10.871-25.617-26.103
				L51.183,42.163c-0.282-4.702-4.403-8.457-9.02-8.013c-4.702,0.273-8.294,4.309-8.013,9.02l17.092,290.466
				c2.389,24.235,20.318,41.83,42.624,41.83h51.2h153.6H349.867z M290.133,358.4H153.6v-8.533c0-4.702,3.831-8.533,8.533-8.533
				H281.6c4.71,0,8.533,3.831,8.533,8.533V358.4z"/>
			<path d="M102.4,170.667c0,65.877,53.589,119.467,119.467,119.467s119.467-53.589,119.467-119.467S287.744,51.2,221.867,51.2
				S102.4,104.789,102.4,170.667z M324.267,170.667c0,56.465-45.935,102.4-102.4,102.4c-56.465,0-102.4-45.935-102.4-102.4
				s45.935-102.4,102.4-102.4C278.332,68.267,324.267,114.202,324.267,170.667z"/>
			<path d="M503.467,494.933H276.599l-48.7-48.7c-3.336-3.337-8.73-3.337-12.066,0c-3.337,3.336-3.337,8.73,0,12.066l51.2,51.2
				c1.596,1.604,3.763,2.5,6.033,2.5h230.4c4.719,0,8.533-3.823,8.533-8.533S508.186,494.933,503.467,494.933z"/>
			<path d="M277.845,405.956c2.697-3.866,1.758-9.182-2.116-11.887c-3.857-2.697-9.182-1.749-11.878,2.108
				c-9.6,13.747-25.293,21.956-41.984,21.956c-16.691,0-32.384-8.209-41.984-21.956c-2.697-3.857-8.021-4.804-11.887-2.108
				c-3.866,2.705-4.813,8.021-2.108,11.887c12.792,18.313,33.715,29.244,55.979,29.244
				C244.13,435.2,265.045,424.269,277.845,405.956z"/>
		</g>
	</g>
</g>
</svg>