<?xml version="1.0" encoding="iso-8859-1"?>
<!-- Uploaded to: SVG Repo, www.svgrepo.com, Generator: SVG Repo Mixer Tools -->
<svg fill="#000000" height="800px" width="800px" version="1.1" id="Layer_1" xmlns="http://www.w3.org/2000/svg" xmlns:xlink="http://www.w3.org/1999/xlink" 
	 viewBox="0 0 470 470" xml:space="preserve">
<g>
	<g>
		<g>
			<path d="M462.5,127H7.5c-4.143,0-7.5,3.357-7.5,7.5v201c0,4.143,3.357,7.5,7.5,7.5h455c4.143,0,7.5-3.357,7.5-7.5v-201
				C470,130.357,466.643,127,462.5,127z M455,298H77.5c-4.143,0-7.5,3.357-7.5,7.5s3.357,7.5,7.5,7.5H455v15H15v-15h32.5
				c4.143,0,7.5-3.357,7.5-7.5s-3.357-7.5-7.5-7.5H15V142h440V298z"/>
			<path d="M38.5,253h90c4.143,0,7.5-3.357,7.5-7.5v-60c0-4.143-3.357-7.5-7.5-7.5H116v-12.5c0-4.143-3.357-7.5-7.5-7.5h-50
				c-4.143,0-7.5,3.357-7.5,7.5V178H38.5c-4.143,0-7.5,3.357-7.5,7.5v60C31,249.643,34.357,253,38.5,253z M46,193h12.5
				c4.143,0,7.5-3.357,7.5-7.5V173h35v12.5c0,4.143,3.357,7.5,7.5,7.5H121v45H46V193z"/>
			<path d="M159.5,253h90c4.143,0,7.5-3.357,7.5-7.5v-60c0-4.143-3.357-7.5-7.5-7.5H237v-12.5c0-4.143-3.357-7.5-7.5-7.5h-50
				c-4.143,0-7.5,3.357-7.5,7.5V178h-12.5c-4.143,0-7.5,3.357-7.5,7.5v60C152,249.643,155.357,253,159.5,253z M167,193h12.5
				c4.143,0,7.5-3.357,7.5-7.5V173h35v12.5c0,4.143,3.357,7.5,7.5,7.5H242v45h-75V193z"/>
			<path d="M280.5,253h90c4.143,0,7.5-3.357,7.5-7.5v-60c0-4.143-3.357-7.5-7.5-7.5H358v-12.5c0-4.143-3.357-7.5-7.5-7.5h-50
				c-4.143,0-7.5,3.357-7.5,7.5V178h-12.5c-4.143,0-7.5,3.357-7.5,7.5v60C273,249.643,276.357,253,280.5,253z M288,193h12.5
				c4.143,0,7.5-3.357,7.5-7.5V173h35v12.5c0,4.143,3.357,7.5,7.5,7.5H363v45h-75V193z"/>
			<path d="M401.5,253h30c4.143,0,7.5-3.357,7.5-7.5s-3.357-7.5-7.5-7.5h-30c-4.143,0-7.5,3.357-7.5,7.5S397.357,253,401.5,253z"/>
		</g>
	</g>
</g>
</svg>